# xmcd
#
# Track frame offsets: 
#        150
#        11753
#        21587
#        32471
#        45474
#        59358
#        69676
#        81666
#        92813
#        104996
#        116383
#        127006
#        139257
#        152271
#        163007
#        174619
#        185130
#        196385
#        208220
#        219163
#        230810
#        243684
#        254343
#        266968
#
# Disc length: 3715 seconds
#
# Revision: 2
# Processed by: cddbd v1.5.2PL0 Copyright (c) Steve Scherf et al.
# Submitted via: ExactAudioCopy v1.0b3
#
DISCID=750e8118
DTITLE=The Louvin Brothers - Ira and Charlie (1958) - The Family Who P
DTITLE=rays (1958)
DYEAR=2013
DGENRE=Country
TTITLE0=Don't Let Your Sweet Love Die
TTITLE1=We Could
TTITLE2=Tennessee Waltz
TTITLE3=Are You Teasing Me
TTITLE4=Too Late
TTITLE5=Here Today and Gone Tomorrow
TTITLE6=I Wonder Where You Are Tonight
TTITLE7=Have I Stayed Away Too Long
TTITLE8=Nobody's Darling But Mine
TTITLE9=Why Not Confess
TTITLE10=Making Believe
TTITLE11=Take Me Back into Your Heart
TTITLE12=The Family Who Prays (Shall Never Part)
TTITLE13=Born Again
TTITLE14=If We Forget God
TTITLE15=Satan Lied to Me
TTITLE16=God Bless Her (Cause She's My Mother)
TTITLE17=Love Thy Neighbor as Thy Self
TTITLE18=Preach the Gospel
TTITLE19=Just Rehearsing
TTITLE20=Pray for Me
TTITLE21=Satan and the Saint
TTITLE22=Swing Low, Sweet Chariot
TTITLE23=Make Him a Soldier
EXTD=
EXTT0=
EXTT1=
EXTT2=
EXTT3=
EXTT4=
EXTT5=
EXTT6=
EXTT7=
EXTT8=
EXTT9=
EXTT10=
EXTT11=
EXTT12=
EXTT13=
EXTT14=
EXTT15=
EXTT16=
EXTT17=
EXTT18=
EXTT19=
EXTT20=
EXTT21=
EXTT22=
EXTT23=
PLAYORDER=
